<svg width="256" height="256" viewBox="0 0 256 256" fill="none" xmlns="http://www.w3.org/2000/svg">
<g clip-path="url(#clip0)">
<path d="M177.381 175.733C186.828 174.755 193.995 166.611 193.669 156.837C193.344 147.064 185.199 139.245 175.426 139.245H174.775C164.675 139.571 156.857 148.041 157.183 158.14C157.509 163.027 159.463 167.262 162.395 170.194C151.319 192.022 134.379 207.985 108.969 221.342C91.703 230.464 73.786 233.722 55.869 231.442C41.209 229.487 29.807 222.972 22.639 212.22C12.215 196.257 11.238 178.99 20.034 161.724C26.224 149.344 35.996 140.222 42.186 135.661C40.883 131.426 38.928 124.259 37.951 119.047C-9.28601 153.254 -4.39901 199.515 9.93499 221.342C20.685 237.632 42.512 247.731 66.619 247.731C73.134 247.731 79.649 247.079 86.165 245.451C127.864 237.306 159.464 212.546 177.381 175.733V175.733ZM234.717 135.336C209.958 106.341 173.472 90.378 131.773 90.378H126.561C123.629 84.514 117.439 80.604 110.598 80.604H109.946C99.848 80.93 92.03 89.4 92.355 99.5C92.681 109.273 100.825 117.092 110.598 117.092H111.249C118.416 116.766 124.606 112.205 127.212 106.015H133.076C157.835 106.015 181.29 113.182 202.466 127.191C218.754 137.942 230.482 151.951 236.997 168.891C242.535 182.574 242.209 195.931 236.345 207.334C227.224 224.6 211.913 234.048 191.715 234.048C178.684 234.048 166.305 230.138 159.789 227.206C156.206 230.464 149.69 235.676 145.129 238.935C159.138 245.45 173.472 249.034 187.154 249.034C218.428 249.034 241.558 231.767 250.354 214.501C259.801 195.605 259.149 163.027 234.717 135.336V135.336ZM69.225 181.27C69.551 191.044 77.695 198.862 87.468 198.862H88.12C98.219 198.537 106.037 190.066 105.711 179.967C105.386 170.193 97.241 162.375 87.468 162.375H86.817C86.165 162.375 85.187 162.375 84.537 162.7C71.18 140.547 65.642 116.44 67.597 90.377C68.899 70.83 75.415 53.889 86.817 39.88C96.264 27.826 114.507 21.962 126.887 21.637C161.418 20.985 176.077 63.988 177.055 81.255C181.29 82.232 188.457 84.513 193.344 86.142C189.434 33.366 156.857 6 125.584 6C96.264 6 69.225 27.176 58.474 58.451C43.489 100.151 53.262 140.222 71.505 171.823C69.877 174.103 68.899 177.687 69.225 181.271V181.27Z" fill="white"/>
</g>
<defs>
<clipPath id="clip0">
<rect width="256" height="256" fill="white"/>
</clipPath>
</defs>
</svg>
