<svg width="911" height="538" viewBox="0 0 911 538" fill="none" xmlns="http://www.w3.org/2000/svg">
<path d="M815.4 127.58C815.4 127.58 779.57 163.41 799.8 216.58C820.03 269.75 765.12 358.17 765.12 358.17C765.12 358.17 765.71 358.08 766.8 357.89C840.39 344.89 876.96 260.73 836.04 198.2C820.83 174.96 808.34 147.72 815.4 127.58Z" fill="#6C63FF"/>
<path d="M815.4 127.58C815.4 127.58 795.17 171.5 815.4 207.33C835.63 243.16 818.87 343.72 765.12 358.17" stroke="#535461" stroke-width="2" stroke-miterlimit="10"/>
<path d="M879.22 272.51C879.22 272.51 838.33 266 834.61 302.64C830.89 339.28 755.99 344.36 755.99 344.36L757.39 345.29C819.23 385.88 878.39 371.15 869.39 317.29C866.12 297.21 866.39 277.08 879.22 272.51Z" fill="#6C63FF"/>
<path opacity="0.2" d="M879.22 272.51C879.22 272.51 838.33 266 834.61 302.64C830.89 339.28 755.99 344.36 755.99 344.36L757.39 345.29C819.23 385.88 878.39 371.15 869.39 317.29C866.12 297.21 866.39 277.08 879.22 272.51Z" fill="#F5F5F5"/>
<path d="M879.22 272.51C879.22 272.51 847.48 279.51 850.09 308.33C852.7 337.15 802.96 371.78 755.99 344.33" stroke="#535461" stroke-width="2" stroke-miterlimit="10"/>
<path d="M784.59 360.64H720.35C721.828 357.667 722.595 354.39 722.59 351.07V58.51C722.59 52.8052 720.324 47.3341 716.29 43.3001C712.256 39.2662 706.785 37 701.08 37H203.74C200.914 36.9987 198.116 37.5541 195.505 38.6345C192.894 39.7149 190.522 41.2991 188.523 43.2966C186.525 45.2941 184.94 47.6658 183.858 50.2762C182.776 52.8865 182.22 55.6844 182.22 58.51V351.08C182.215 354.4 182.981 357.677 184.46 360.65H117.95C116.441 360.65 114.993 361.249 113.926 362.317C112.859 363.384 112.26 364.831 112.26 366.34V370.93C112.268 379.364 115.624 387.45 121.59 393.411C127.557 399.372 135.646 402.72 144.08 402.72H758.46C766.899 402.72 774.992 399.368 780.96 393.4C786.927 387.433 790.28 379.339 790.28 370.9V366.31C790.274 364.804 789.673 363.362 788.606 362.299C787.54 361.237 786.095 360.64 784.59 360.64ZM388.7 378.84L383.22 372.59H519.94L513.84 378.85L388.7 378.84Z" fill="url(#paint0_linear)"/>
<path d="M693.19 41.14H211.59C198.744 41.14 188.33 51.5539 188.33 64.4V345.87C188.33 358.716 198.744 369.13 211.59 369.13H693.19C706.036 369.13 716.45 358.716 716.45 345.87V64.4C716.45 51.5539 706.036 41.14 693.19 41.14Z" fill="white"/>
<path d="M704.21 88.95H199.44V356.9H704.21V88.95Z" fill="#181F37"/>
<path d="M451.83 70.05C454.288 70.05 456.28 68.0577 456.28 65.6C456.28 63.1424 454.288 61.15 451.83 61.15C449.372 61.15 447.38 63.1424 447.38 65.6C447.38 68.0577 449.372 70.05 451.83 70.05Z" fill="#181F37"/>
<path d="M529.77 357.45L512.42 375.24H390.12L374.45 357.45H125.51C124.035 357.45 122.621 358.036 121.578 359.078C120.535 360.121 119.95 361.535 119.95 363.01V367.49C119.95 375.738 123.226 383.649 129.059 389.481C134.891 395.313 142.801 398.59 151.05 398.59H751.5C759.748 398.59 767.658 395.313 773.491 389.481C779.323 383.649 782.6 375.738 782.6 367.49V363.01C782.6 361.535 782.014 360.121 780.971 359.078C779.928 358.036 778.514 357.45 777.04 357.45H529.77Z" fill="white"/>
<path d="M356.63 98.37H143.7C138.527 98.3647 133.564 100.414 129.902 104.067C126.24 107.72 124.178 112.677 124.17 117.85V412.85C124.178 418.023 126.24 422.98 129.902 426.633C133.564 430.286 138.527 432.335 143.7 432.33H356.63C361.803 432.335 366.766 430.286 370.428 426.633C374.09 422.98 376.152 418.023 376.16 412.85V117.85C376.152 112.677 374.09 107.72 370.428 104.067C366.766 100.414 361.803 98.3647 356.63 98.37Z" fill="url(#paint1_linear)"/>
<path d="M353.16 102.37H147.16C136.114 102.37 127.16 111.324 127.16 122.37V409.37C127.16 420.416 136.114 429.37 147.16 429.37H353.16C364.205 429.37 373.16 420.416 373.16 409.37V122.37C373.16 111.324 364.205 102.37 353.16 102.37Z" fill="white"/>
<path d="M360.66 133.3H139.66V398.44H360.66V133.3Z" fill="#181F37"/>
<path d="M249.16 120.37C250.817 120.37 252.16 119.027 252.16 117.37C252.16 115.713 250.817 114.37 249.16 114.37C247.503 114.37 246.16 115.713 246.16 117.37C246.16 119.027 247.503 120.37 249.16 120.37Z" fill="#181F37"/>
<path d="M249.16 422.37C254.13 422.37 258.16 418.341 258.16 413.37C258.16 408.4 254.13 404.37 249.16 404.37C244.189 404.37 240.16 408.4 240.16 413.37C240.16 418.341 244.189 422.37 249.16 422.37Z" fill="#181F37"/>
<path d="M194.33 198.37H84.9999C83.5803 198.367 82.1741 198.644 80.8616 199.185C79.549 199.726 78.3559 200.52 77.3502 201.522C76.3446 202.524 75.5461 203.714 75.0004 205.025C74.4547 206.335 74.1725 207.74 74.1699 209.16V448.58C74.1725 449.999 74.4547 451.405 75.0004 452.715C75.5461 454.026 76.3446 455.216 77.3502 456.218C78.3559 457.22 79.549 458.014 80.8616 458.555C82.1741 459.096 83.5803 459.373 84.9999 459.37H194.33C195.749 459.373 197.156 459.096 198.468 458.555C199.781 458.014 200.974 457.22 201.98 456.218C202.985 455.216 203.784 454.026 204.329 452.715C204.875 451.405 205.157 449.999 205.16 448.58V209.16C205.157 207.74 204.875 206.335 204.329 205.025C203.784 203.714 202.985 202.524 201.98 201.522C200.974 200.52 199.781 199.726 198.468 199.185C197.156 198.644 195.749 198.367 194.33 198.37V198.37Z" fill="url(#paint2_linear)"/>
<path d="M193.16 200.37H86.1597C80.0845 200.37 75.1597 205.295 75.1597 211.37V447.37C75.1597 453.445 80.0845 458.37 86.1597 458.37H193.16C199.235 458.37 204.16 453.445 204.16 447.37V211.37C204.16 205.295 199.235 200.37 193.16 200.37Z" fill="white"/>
<path d="M194.66 224.37H84.6597V434.37H194.66V224.37Z" fill="#181F37"/>
<path d="M126.66 213.37C127.212 213.37 127.66 212.922 127.66 212.37C127.66 211.818 127.212 211.37 126.66 211.37C126.107 211.37 125.66 211.818 125.66 212.37C125.66 212.922 126.107 213.37 126.66 213.37Z" fill="#181F37"/>
<path d="M152.66 211.37H132.66C132.107 211.37 131.66 211.818 131.66 212.37C131.66 212.922 132.107 213.37 132.66 213.37H152.66C153.212 213.37 153.66 212.922 153.66 212.37C153.66 211.818 153.212 211.37 152.66 211.37Z" fill="#181F37"/>
<path d="M139.16 451.37C143.026 451.37 146.16 448.236 146.16 444.37C146.16 440.504 143.026 437.37 139.16 437.37C135.294 437.37 132.16 440.504 132.16 444.37C132.16 448.236 135.294 451.37 139.16 451.37Z" fill="#181F37"/>
<path d="M61.9499 476.97C61.9499 476.97 48.6899 431.97 64.4399 398.83C71.1444 384.978 73.1726 369.324 70.2199 354.22C68.7601 347.065 66.6479 340.059 63.9099 333.29" stroke="#535461" stroke-width="2" stroke-miterlimit="10"/>
<path d="M73.6699 312.35C73.6699 317.87 63.6699 333.86 63.6699 333.86C63.6699 333.86 53.6699 317.86 53.6699 312.35C53.6699 309.698 54.7235 307.154 56.5988 305.279C58.4742 303.404 61.0178 302.35 63.6699 302.35C66.3221 302.35 68.8656 303.404 70.741 305.279C72.6163 307.154 73.6699 309.698 73.6699 312.35Z" fill="#6C63FF"/>
<path d="M90.2199 342.91C87.2199 347.54 70.1399 355.54 70.1399 355.54C70.1399 355.54 70.4499 336.68 73.4499 332.05C74.1322 330.883 75.0438 329.867 76.1299 329.063C77.2159 328.258 78.4537 327.682 79.7686 327.369C81.0834 327.057 82.448 327.014 83.7799 327.243C85.1118 327.473 86.3833 327.97 87.5177 328.704C88.6521 329.439 89.6259 330.396 90.3801 331.518C91.1344 332.639 91.6534 333.902 91.906 335.229C92.1585 336.557 92.1393 337.922 91.8495 339.242C91.5597 340.562 91.0053 341.81 90.2199 342.91V342.91Z" fill="#6C63FF"/>
<path d="M89.46 395.12C84.53 397.6 65.75 395.89 65.75 395.89C65.75 395.89 75.54 379.77 80.46 377.29C82.8093 376.228 85.4778 376.115 87.9085 376.974C90.3393 377.833 92.3445 379.597 93.5056 381.899C94.6668 384.2 94.8942 386.862 94.1404 389.327C93.3866 391.792 91.7098 393.871 89.46 395.13V395.12Z" fill="#6C63FF"/>
<path d="M80.0198 434.51C75.5798 437.79 56.7798 439.27 56.7798 439.27C56.7798 439.27 63.6998 421.73 68.1398 418.45C70.2761 417.025 72.8789 416.476 75.4088 416.917C77.9388 417.359 80.2018 418.757 81.7291 420.822C83.2564 422.886 83.9308 425.459 83.6126 428.008C83.2944 430.556 82.0079 432.884 80.0198 434.51V434.51Z" fill="#6C63FF"/>
<path d="M49.1298 356.61C53.1298 360.45 71.5198 364.44 71.5198 364.44C71.5198 364.44 67.0098 346.13 63.0498 342.29C62.1248 341.303 61.0092 340.513 59.7704 339.97C58.5315 339.426 57.1953 339.14 55.8426 339.128C54.4898 339.115 53.1486 339.378 51.9002 339.899C50.6518 340.42 49.5221 341.189 48.5795 342.159C47.6369 343.13 46.901 344.281 46.4163 345.544C45.9316 346.807 45.7082 348.156 45.7597 349.507C45.8111 350.859 46.1363 352.187 46.7156 353.409C47.2949 354.632 48.1162 355.724 49.1298 356.62V356.61Z" fill="#6C63FF"/>
<path d="M38.6697 402.81C43.5997 405.29 62.3797 403.58 62.3797 403.58C62.3797 403.58 52.5897 387.46 47.6697 384.98C46.4922 384.321 45.1935 383.908 43.8518 383.764C42.5102 383.62 41.1534 383.75 39.8631 384.144C38.5727 384.539 37.3756 385.19 36.3438 386.06C35.3119 386.929 34.4667 387.998 33.8589 389.203C33.2512 390.408 32.8935 391.723 32.8075 393.069C32.7214 394.416 32.9088 395.766 33.3582 397.038C33.8077 398.31 34.51 399.479 35.4228 400.472C36.3356 401.466 37.4401 402.264 38.6697 402.82V402.81Z" fill="#6C63FF"/>
<path d="M34.6699 449.11C39.1099 452.39 57.9099 453.87 57.9099 453.87C57.9099 453.87 50.9899 436.33 46.5499 433.05C44.4135 431.625 41.8107 431.076 39.2808 431.518C36.7509 431.959 34.4878 433.357 32.9606 435.422C31.4333 437.486 30.7589 440.059 31.0771 442.608C31.3953 445.156 32.6818 447.484 34.6699 449.11Z" fill="#6C63FF"/>
<path d="M853.22 333.82C842.15 320.39 828.74 304.96 830.62 287.09C832.14 272.62 828.5 259.24 829.22 244.72C830.22 224.09 826.08 207.94 811.22 194.72C802.54 186.99 788.03 180.92 783.71 182.47C775.15 185.53 765.81 184.36 757 186.47C750.31 188.03 745.86 190.47 743.1 193.47C737.55 198.47 737.46 205.47 739.99 212.92C737.782 216.964 736.449 221.427 736.078 226.019C735.708 230.612 736.307 235.231 737.837 239.576C739.368 243.922 741.796 247.897 744.963 251.243C748.13 254.59 751.965 257.232 756.22 259C750.05 261.58 744.72 267.52 742.64 279.58C741.194 287.862 739.009 295.998 736.11 303.89C734.807 304.499 733.472 305.036 732.11 305.5C732.41 305.62 732.72 305.7 733.02 305.81C732.37 306.06 731.73 306.31 731.02 306.53C732.202 306.992 733.424 307.347 734.67 307.59C726.67 327.8 716.67 340.32 716.67 340.32C716.67 340.32 698.02 344.44 690.77 337.23C690.77 337.23 691.95 338.61 693.55 340.68C686.46 337.74 674.82 332.94 664.87 328.99C657.65 326.12 655.8 328.99 655.87 332.99C654.108 333.211 652.408 333.782 650.87 334.67C648.737 333.297 646.5 332.094 644.18 331.07C640.04 330.07 626.57 322.83 613.1 347.54C605.26 361.91 585.16 388.14 569.71 407.54C539.66 421.36 500.54 438.86 486 443.26H476.68C475.46 441.26 474.61 440 474.61 440L473.89 440.48L473.58 440C473.58 440 455.28 452.67 436.7 452.77C434.057 452.734 431.427 452.398 428.86 451.77C420.32 449.62 414.3 448.66 410 448.77C404.91 448.68 402 449.89 400.24 452.17C400.004 452.469 399.786 452.783 399.59 453.11V453.11C399.393 453.434 399.213 453.768 399.05 454.11V454.11C398.89 454.47 398.73 454.85 398.59 455.24C398.532 455.588 398.554 455.944 398.655 456.282C398.755 456.62 398.932 456.93 399.17 457.19C399.419 457.54 399.69 457.874 399.98 458.19L400.5 458.75C402.84 461.17 407.1 464.38 412.4 467.96C413.93 468.96 415.55 470.06 417.24 471.15L420.45 473.15L423.32 474.94L424.47 475.65L425.75 476.43L428.04 477.82L429.4 478.64L431.97 480.17L434.05 481.4C439.49 484.61 444.91 487.72 449.8 490.48L453.22 492.52L453.55 492.7L455.75 493.93L459.55 496.04L462.16 497.48L463.38 498.15L464.69 498.87L464.95 499.01L467.23 500.25C467.699 500.329 468.18 500.305 468.639 500.181C469.098 500.057 469.525 499.835 469.89 499.53C470.55 496.73 472.16 490.73 473.89 490.27C475.62 489.81 483.11 476.72 485.22 467.96H505.44C509.423 467.619 513.379 467.011 517.28 466.14C512.06 469.86 506.89 472.2 502.87 471.2C494.37 469.09 486.32 474.27 485.51 479.38C485.51 479.49 485.44 479.59 485.41 479.7C485.38 479.81 485.36 479.91 485.34 480.01C485.32 480.11 485.28 480.26 485.26 480.39C485.24 480.52 485.26 480.6 485.26 480.71C485.26 480.82 485.26 480.96 485.26 481.09C485.26 481.22 485.26 481.3 485.26 481.4C485.26 481.5 485.26 481.66 485.26 481.79C485.26 481.92 485.26 481.99 485.26 482.09C485.26 482.19 485.32 482.36 485.36 482.5C485.4 482.64 485.36 482.68 485.43 482.76C485.493 482.941 485.567 483.118 485.65 483.29L485.7 483.42C485.812 483.638 485.939 483.849 486.08 484.05L486.24 484.26C486.34 484.4 486.45 484.54 486.57 484.67L486.8 484.9C486.92 485.02 487.05 485.14 487.18 485.26L487.46 485.49L487.91 485.82L488.24 486.04L488.78 486.36L489.14 486.55L489.82 486.87L490.16 487.02C490.52 487.17 490.9 487.31 491.31 487.44C491.96 487.65 492.73 487.87 493.6 488.09L494.47 488.3L495.74 488.59L496.41 488.74C497.277 488.927 498.197 489.113 499.17 489.3L500.52 489.55L501.62 489.75L504.15 490.19C505.73 490.46 507.38 490.73 509.15 490.99L513.51 491.65L519.19 492.46L520.45 492.63L522.45 492.91L525.38 493.3L527.38 493.56L532.57 494.22L534.19 494.42L537.46 494.82C541.76 495.34 545.92 495.82 549.75 496.25L554.18 496.75L556.42 497L557.42 497.1L560.1 497.39L561.59 497.55L563.43 497.74L566.02 498.01H566.3L567.96 498.18C568.168 498.202 568.378 498.181 568.578 498.118C568.777 498.054 568.961 497.95 569.118 497.812C569.275 497.674 569.402 497.504 569.49 497.315C569.578 497.125 569.626 496.919 569.63 496.71C569.63 496.66 569.63 496.6 569.63 496.54C569.783 496.308 569.866 496.037 569.87 495.76C569.914 493.293 570.225 490.839 570.8 488.44C570.91 488.03 571.04 487.61 571.18 487.19L571.34 486.71C571.52 486.2 571.7 485.71 571.91 485.16C572.061 484.787 572.191 484.407 572.3 484.02C572.3 483.9 572.37 483.78 572.41 483.65C572.45 483.52 572.51 483.24 572.55 483.03C574.63 475.92 572.12 462.66 571.4 457.45C571.169 455.785 570.787 454.145 570.26 452.55C570.39 452.563 570.52 452.563 570.65 452.55C571.724 452.155 572.734 451.606 573.65 450.92C588.93 445.47 601.81 439.24 605.88 433C612.471 431.26 619.472 431.993 625.56 435.06C633.47 438.99 693.31 458.52 721.17 467.54C726.17 471.85 730.09 474.37 732.26 474.18C732.26 474.18 767.73 479.92 781.99 468.72C783.26 469.6 784.06 470.07 784.06 470.07C784.06 470.07 804.78 459.78 807.89 446.39C808.89 442.05 809.8 435.65 810.73 428.57C815.537 423.727 818.239 417.183 818.25 410.36C818.9 387.88 827.61 362.2 834.07 339.36C841.91 339.98 844.94 338.5 852.13 334.95L851.81 334.54C852.32 334.24 852.77 334.04 853.22 333.82ZM734.43 367.49L730.43 366.16C731.772 364.369 732.928 362.445 733.88 360.42L734.43 367.49ZM712.14 376.95L736.14 391.35L736.35 394.28C736.058 396.51 736.125 398.772 736.55 400.98C725.97 391.58 713.59 380.17 712.13 376.94L712.14 376.95ZM702.34 355.95C699.72 354.87 697.55 353.89 696.06 353.08C698.06 353.22 699.96 353.34 701.62 353.43C701.948 354.242 702.189 355.087 702.34 355.95V355.95ZM638.06 379.42C638.06 379.42 642.2 370.16 651.53 385.6C652.98 388 655.65 391.82 659.18 396.55L632.02 392.92C635.22 387.96 637.37 383.35 638.06 379.43V379.42Z" fill="url(#paint3_linear)"/>
<path d="M697.72 342.22C697.72 342.22 678.72 334.22 663.72 328.22C648.72 322.22 657.72 342.22 657.72 342.22C657.72 342.22 682.72 349.22 682.72 350.22C682.72 351.22 703.72 352.22 703.72 352.22L697.72 342.22Z" fill="#F7C4A7"/>
<path opacity="0.05" d="M697.72 342.22C697.72 342.22 678.72 334.22 663.72 328.22C648.72 322.22 657.72 342.22 657.72 342.22C657.72 342.22 682.72 349.22 682.72 350.22C682.72 351.22 703.72 352.22 703.72 352.22L697.72 342.22Z" fill="black"/>
<path d="M778.72 263.22C778.72 263.22 744.72 245.22 738.72 280.22C732.72 315.22 713.72 339.22 713.72 339.22C713.72 339.22 695.72 343.22 688.72 336.22C688.72 336.22 705.72 356.22 697.72 358.22C697.72 358.22 715.72 371.22 723.72 367.22C731.72 363.22 737.72 336.22 740.72 329.22C743.72 322.22 754.72 261.22 778.72 263.22Z" fill="#575988"/>
<path opacity="0.1" d="M778.72 263.22C778.72 263.22 744.72 245.22 738.72 280.22C732.72 315.22 713.72 339.22 713.72 339.22C713.72 339.22 695.72 343.22 688.72 336.22C688.72 336.22 705.72 356.22 697.72 358.22C697.72 358.22 715.72 371.22 723.72 367.22C731.72 363.22 737.72 336.22 740.72 329.22C743.72 322.22 754.72 261.22 778.72 263.22Z" fill="black"/>
<path d="M759.72 251.22C759.72 251.22 780.72 275.22 781.72 295.22C782.72 315.22 805.72 274.22 807.72 273.22C809.72 272.22 787.72 238.22 785.72 227.22C783.72 216.22 759.72 251.22 759.72 251.22Z" fill="#F7C4A7"/>
<path d="M774.22 261.47L760.97 273.47L767.22 298.72L784.22 282.72L782.22 266.72L774.22 261.47Z" fill="#F7C4A7"/>
<path d="M497.72 439.22H474.72L483.72 461.22L505.72 455.22L497.72 439.22Z" fill="#F7C4A7"/>
<path opacity="0.1" d="M480.04 436.05C480.04 436.05 456.22 452.64 435.87 447.48C415.52 442.32 409.99 444.25 407.62 450.91C405.43 457.04 464.46 489.46 473.87 494.58C474.016 494.66 474.178 494.705 474.345 494.712C474.511 494.719 474.676 494.687 474.828 494.619C474.98 494.551 475.115 494.449 475.221 494.321C475.327 494.193 475.402 494.042 475.44 493.88C476.08 491.16 477.63 485.33 479.29 484.88C481.45 484.3 491.29 465.88 490.75 458.64C490.21 451.4 480.04 436.05 480.04 436.05Z" fill="black"/>
<path d="M479.04 436.05C479.04 436.05 455.22 452.64 434.87 447.48C414.52 442.32 408.99 444.25 406.62 450.91C404.43 457.04 463.46 489.46 472.87 494.58C473.016 494.66 473.178 494.705 473.345 494.712C473.511 494.719 473.676 494.687 473.828 494.619C473.98 494.551 474.115 494.449 474.221 494.321C474.327 494.193 474.402 494.042 474.44 493.88C475.08 491.16 476.63 485.33 478.29 484.88C480.45 484.3 490.29 465.88 489.75 458.64C489.21 451.4 479.04 436.05 479.04 436.05Z" fill="#F3B5B7"/>
<path d="M675.72 396.22L608.72 387.22C608.72 387.22 499.72 439.22 486.72 440.22L489.72 463.22H509.72C517.72 463.22 595.72 446.22 606.72 429.22C613.084 427.528 619.848 428.24 625.72 431.22C635.72 436.22 731.72 467.22 731.72 467.22L675.72 396.22Z" fill="#575988"/>
<path opacity="0.1" d="M675.72 396.22L608.72 387.22C608.72 387.22 499.72 439.22 486.72 440.22L489.72 463.22H509.72C517.72 463.22 595.72 446.22 606.72 429.22C613.084 427.528 619.848 428.24 625.72 431.22C635.72 436.22 731.72 467.22 731.72 467.22L675.72 396.22Z" fill="black"/>
<path d="M556.72 427.22L545.72 441.22L556.72 447.22L572.72 435.22L556.72 427.22Z" fill="#F7C4A7"/>
<path d="M747.72 411.22C747.72 411.22 711.72 380.4 709.23 374.81C706.74 369.22 647.72 331.22 643.72 330.22C639.72 329.22 626.72 322.22 613.72 346.22C600.72 370.22 552.72 428.22 552.72 428.22C552.72 428.22 567.72 449.22 572.72 448.22C577.72 447.22 633.72 400.22 637.72 377.22C637.72 377.22 641.72 368.22 650.72 383.22C659.72 398.22 717.72 470.22 728.72 469.22C728.72 469.22 771.72 476.22 780.72 459.22C789.72 442.22 747.72 411.22 747.72 411.22Z" fill="#575988"/>
<path d="M768.22 264.72C768.22 264.72 755.72 270.22 754.72 293.22C753.72 316.22 731.72 355.22 731.72 355.22L733.72 401.22C733.72 401.22 757.72 425.22 759.72 440.22C761.72 455.22 778.72 465.22 778.72 465.22C778.72 465.22 798.72 455.22 801.72 442.22C804.72 429.22 806.72 397.22 811.72 385.22C816.72 373.22 813.72 298.22 813.72 298.22L798.72 272.22L790.72 263.22L769.72 287.22C769.72 287.22 758.22 271.72 768.22 264.72Z" fill="#DDDBE2"/>
<path opacity="0.1" d="M738.72 386.22C738.72 386.22 735.72 350.22 744.72 342.22L762.72 291.22C762.72 291.22 769.22 266.72 768.22 264.72C767.22 262.72 744.72 284.22 744.72 284.22L729.72 337.22L733.72 393.22L738.72 386.22Z" fill="black"/>
<path d="M737.72 386.22C737.72 386.22 734.72 350.22 743.72 342.22L761.72 291.22C761.72 291.22 768.72 266.22 767.72 264.22C766.72 262.22 743.72 284.22 743.72 284.22L728.72 337.22L732.72 393.22L737.72 386.22Z" fill="#575988"/>
<path d="M744.72 370.22C744.72 370.22 694.72 354.22 691.72 350.22C688.72 346.22 656.72 320.22 645.72 338.22C634.72 356.22 686.72 361.22 686.72 361.22L739.72 393.22L744.72 370.22Z" fill="#F7C4A7"/>
<path opacity="0.1" d="M558.89 441.13L544.09 438.47C544.09 438.47 519.85 469.52 507.22 466.37C494.59 463.22 482.97 476.81 496.31 481.17C508.36 485.11 560.4 490.62 570.31 491.64C570.51 491.661 570.713 491.64 570.905 491.578C571.097 491.517 571.275 491.416 571.426 491.283C571.577 491.149 571.699 490.986 571.784 490.803C571.869 490.62 571.915 490.422 571.92 490.22C571.996 486.355 572.775 482.536 574.22 478.95C576.89 472.4 574.22 458.33 573.48 452.95C573.072 449.796 572.085 446.745 570.57 443.95L558.89 441.13Z" fill="black"/>
<path d="M558.64 442.1L543.84 439.44C543.84 439.44 519.6 470.49 506.99 467.35C494.38 464.21 482.74 477.79 496.08 482.15C508.13 486.09 560.17 491.6 570.08 492.62C570.281 492.641 570.483 492.62 570.675 492.558C570.868 492.497 571.045 492.396 571.196 492.263C571.347 492.129 571.469 491.966 571.554 491.783C571.639 491.6 571.686 491.402 571.69 491.2C571.739 487.344 572.488 483.528 573.9 479.94C576.57 473.39 573.9 459.32 573.16 453.94C572.752 450.786 571.766 447.735 570.25 444.94L558.64 442.1Z" fill="#F3B5B7"/>
<path opacity="0.1" d="M767.22 262.72C784.893 262.72 799.22 248.393 799.22 230.72C799.22 213.047 784.893 198.72 767.22 198.72C749.547 198.72 735.22 213.047 735.22 230.72C735.22 248.393 749.547 262.72 767.22 262.72Z" fill="black"/>
<path d="M764.22 262.72C781.893 262.72 796.22 248.393 796.22 230.72C796.22 213.047 781.893 198.72 764.22 198.72C746.547 198.72 732.22 213.047 732.22 230.72C732.22 248.393 746.547 262.72 764.22 262.72Z" fill="#F7C4A7"/>
<path d="M795.72 262.22C795.72 262.22 833.72 275.22 833.72 302.22C833.72 329.22 812.72 372.22 811.72 407.22C810.72 442.22 755.72 437.22 755.72 437.22C755.72 437.22 747.72 319.22 755.72 310.22C763.72 301.22 799.72 266.22 795.72 262.22Z" fill="#575988"/>
<path opacity="0.1" d="M788.72 318.22C788.72 318.22 774.72 380.22 741.72 369.22C741.72 369.22 724.72 394.22 736.72 405.22C736.72 405.22 765.72 412.22 784.72 393.22C803.72 374.22 817.72 367.22 820.72 344.22C823.72 321.22 825.72 289.22 815.72 292.22C805.72 295.22 788.72 318.22 788.72 318.22Z" fill="black"/>
<path d="M789.72 317.22C789.72 317.22 775.72 379.22 742.72 368.22C742.72 368.22 725.72 393.22 737.72 404.22C737.72 404.22 766.72 411.22 785.72 392.22C804.72 373.22 818.72 366.22 821.72 343.22C824.72 320.22 826.72 288.22 816.72 291.22C806.72 294.22 789.72 317.22 789.72 317.22Z" fill="#575988"/>
<path d="M574.76 476.72C574.76 476.81 574.7 476.92 574.67 477C573.981 478.71 573.455 480.481 573.1 482.29C573.34 481.51 573.62 480.71 573.94 479.91C574.333 478.881 574.608 477.811 574.76 476.72Z" fill="#DDDBE2"/>
<path d="M496.81 479.23C492.69 477.88 490.96 475.66 490.89 473.32C489.19 476.58 490.26 480.24 496.08 482.14C508.13 486.08 560.18 491.59 570.08 492.61C570.281 492.631 570.485 492.609 570.678 492.547C570.87 492.485 571.048 492.384 571.2 492.249C571.351 492.115 571.473 491.95 571.557 491.766C571.642 491.582 571.687 491.382 571.69 491.18V491.18C571.697 490.813 571.566 490.456 571.324 490.181C571.082 489.905 570.745 489.73 570.38 489.69C559.52 488.53 508.7 483.11 496.81 479.23Z" fill="#DDDBE2"/>
<path d="M408 449.15C408.265 448.413 408.6 447.703 409 447.03C407.922 448.121 407.117 449.45 406.65 450.91C404.46 457.04 463.49 489.46 472.9 494.58C473.046 494.66 473.21 494.705 473.376 494.711C473.543 494.717 473.709 494.684 473.861 494.616C474.014 494.547 474.148 494.444 474.253 494.314C474.359 494.185 474.433 494.033 474.47 493.87V493.87C474.525 493.64 474.504 493.397 474.408 493.18C474.312 492.963 474.148 492.784 473.94 492.67C463.54 486.98 405.84 455.21 408 449.15Z" fill="#DDDBE2"/>
<path d="M479.66 483.13C479.13 483.27 478.61 483.98 478.12 484.95L478.28 484.89C478.72 484.77 479.47 483.89 480.38 482.59C480.185 482.824 479.939 483.009 479.66 483.13V483.13Z" fill="#DDDBE2"/>
<path opacity="0.1" d="M759.78 258.89C756.96 265.11 756.37 272.12 754.3 278.64C750.19 291.57 739.88 302.27 727.53 306.4C737.92 310.54 750.18 305.48 758.21 297.08C766.24 288.68 770.95 277.5 775.46 266.62C787.12 274.46 785.7 292.48 789.62 306.51C791.302 312.614 794.275 318.286 798.338 323.142C802.401 327.999 807.459 331.926 813.17 334.66C818.862 337.214 825.049 338.473 831.287 338.347C837.524 338.221 843.656 336.712 849.24 333.93C838.55 320.93 823.33 303 825.14 285.64C826.61 271.58 816.52 260.84 817.21 246.73C818.21 226.73 810.55 216.57 796.21 203.73C787.83 196.22 801.02 185.63 790.21 188.73C785.96 189.95 781.48 185.4 777.31 186.9C769.05 189.9 760.03 188.74 751.53 190.74C707.35 201.12 763.9 249.81 759.78 258.89Z" fill="black"/>
<path d="M760.78 257.89C757.96 264.11 757.37 271.12 755.3 277.64C751.19 290.57 740.88 301.27 728.53 305.4C738.92 309.54 751.18 304.48 759.21 296.08C767.24 287.68 771.95 276.5 776.46 265.62C788.12 273.46 786.7 291.48 790.62 305.51C792.302 311.614 795.275 317.286 799.338 322.142C803.401 326.999 808.459 330.927 814.17 333.66C819.862 336.214 826.049 337.473 832.287 337.347C838.524 337.221 844.656 335.712 850.24 332.93C839.55 319.93 825.33 305 827.14 287.64C828.61 273.58 826.42 259.13 827.14 245.03C828.14 225.03 818.33 205.71 803.98 192.87C795.6 185.36 782.51 184.4 778.33 185.87C770.07 188.87 761.05 187.71 752.55 189.71C708.35 200.12 764.9 248.81 760.78 257.89Z" fill="#FC6681"/>
<defs>
<linearGradient id="paint0_linear" x1="451.27" y1="402.74" x2="451.27" y2="36.99" gradientUnits="userSpaceOnUse">
<stop stop-color="#808080" stop-opacity="0.25"/>
<stop offset="0.54" stop-color="#808080" stop-opacity="0.12"/>
<stop offset="1" stop-color="#808080" stop-opacity="0.1"/>
</linearGradient>
<linearGradient id="paint1_linear" x1="119552" y1="212380" x2="119552" y2="100837" gradientUnits="userSpaceOnUse">
<stop stop-color="#808080" stop-opacity="0.25"/>
<stop offset="0.54" stop-color="#808080" stop-opacity="0.12"/>
<stop offset="1" stop-color="#808080" stop-opacity="0.1"/>
</linearGradient>
<linearGradient id="paint2_linear" x1="47681.2" y1="173150" x2="47681.2" y2="105029" gradientUnits="userSpaceOnUse">
<stop stop-color="#808080" stop-opacity="0.25"/>
<stop offset="0.54" stop-color="#808080" stop-opacity="0.12"/>
<stop offset="1" stop-color="#808080" stop-opacity="0.1"/>
</linearGradient>
<linearGradient id="paint3_linear" x1="386715" y1="223994" x2="386715" y2="122798" gradientUnits="userSpaceOnUse">
<stop stop-color="#808080" stop-opacity="0.25"/>
<stop offset="0.54" stop-color="#808080" stop-opacity="0.12"/>
<stop offset="1" stop-color="#808080" stop-opacity="0.1"/>
</linearGradient>
</defs>
</svg>
