<svg width="180" height="180" viewBox="0 0 180 180" fill="none" xmlns="http://www.w3.org/2000/svg">
<path d="M103.276 71.646V168.93L132.165 144.689V117.484H122.535V140.497L112.906 148.577V81.2758H122.535V107.854H132.165V71.646H103.276Z" fill="#675EF8"/>
<path d="M47.0376 71.646V143.88L56.6674 151.961V81.2758H66.2973V160.041L75.9271 168.122V81.2758H85.5569V176.202L90.0832 180L95.1868 175.718V71.646H47.0376Z" fill="#675EF8"/>
<path d="M90.5032 14.1529C94.0075 13.7105 96.7174 10.7236 96.7174 7.10468C96.7174 3.18082 93.5314 0 89.6014 0C85.6714 0 82.4855 3.18082 82.4855 7.10468C82.4855 10.7236 85.1954 13.7105 88.6996 14.1529C88.4373 23.2645 83.9678 40.0177 74.48 41.74C64.8216 43.4933 55.4521 30.2469 52.3605 24.2107C54.4004 23.1898 55.8007 21.0831 55.8007 18.6498C55.8007 15.2165 53.013 12.4332 49.5743 12.4332C46.1355 12.4332 43.3478 15.2165 43.3478 18.6498C43.3478 22.0831 46.1355 24.8664 49.5743 24.8664C50.2845 24.8664 50.9669 24.7477 51.6027 24.529C54.3964 31.013 55.6235 44.8036 49.5743 47.0685C44.3226 49.0347 34.7644 43.6915 31.0702 38.4432C32.0598 37.4759 32.6739 36.1272 32.6739 34.6353C32.6739 31.6924 30.2845 29.3068 27.337 29.3068C24.3894 29.3068 22 31.6924 22 34.6353C22 37.5782 24.3894 39.9638 27.337 39.9638C28.1195 39.9638 28.8627 39.7957 29.5323 39.4935C37.355 47.3831 43.9186 56.2627 46.0163 63.9421H133.187C135.284 56.2627 141.848 47.3831 149.67 39.4935C150.34 39.7957 151.083 39.9638 151.866 39.9638C154.813 39.9638 157.203 37.5782 157.203 34.6353C157.203 31.6924 154.813 29.3068 151.866 29.3068C148.918 29.3068 146.529 31.6924 146.529 34.6353C146.529 36.1272 147.143 37.4759 148.133 38.4432C144.438 43.6915 134.88 49.0347 129.629 47.0685C123.579 44.8036 124.807 31.013 127.6 24.529C128.236 24.7477 128.918 24.8664 129.629 24.8664C133.067 24.8664 135.855 22.0831 135.855 18.6498C135.855 15.2165 133.067 12.4332 129.629 12.4332C126.19 12.4332 123.402 15.2165 123.402 18.6498C123.402 21.0831 124.802 23.1898 126.842 24.2107C123.751 30.2469 114.381 43.4933 104.723 41.74C95.235 40.0177 90.7655 23.2645 90.5032 14.1529Z" fill="#675EF8"/>
</svg>
