<svg width="1024" height="1024" viewBox="0 0 1024 1024" fill="none" xmlns="http://www.w3.org/2000/svg">
<path d="M169 680.547C168.9 616.959 186.536 554.604 219.927 500.489C273.776 396.994 512.453 0 512.453 0C512.453 0 747.911 392.773 803.889 498.738C837.98 553.244 856.009 616.258 855.907 680.547C855.907 870.231 702.138 1024 512.453 1024C322.769 1024 169 870.231 169 680.547Z" fill="#FF194D"/>
<path d="M169.176 669.03C169.053 672.864 168.994 676.703 169 680.547C169 711.27 173.034 741.051 180.602 769.389C201.516 762.872 216.698 743.358 216.698 720.297C216.698 693.212 195.753 671.019 169.176 669.03Z" fill="white"/>
<path d="M846.954 602.28C845.535 602.163 844.101 602.103 842.652 602.103C814.258 602.103 791.24 625.121 791.24 653.515C791.24 681.909 814.258 704.927 842.652 704.927C846.966 704.927 851.155 704.396 855.159 703.395C855.655 695.843 855.907 688.224 855.907 680.547C855.949 654.074 852.916 627.816 846.954 602.28Z" fill="white"/>
<path d="M620.044 442.037C648.438 442.037 671.456 419.019 671.456 390.625C671.456 362.231 648.438 339.213 620.044 339.213C591.65 339.213 568.632 362.231 568.632 390.625C568.632 419.019 591.65 442.037 620.044 442.037Z" fill="white"/>
<path d="M374.644 524.19C374.644 552.584 351.626 575.602 323.232 575.602C294.838 575.602 271.82 552.584 271.82 524.19C271.82 495.796 294.838 472.778 323.232 472.778C351.626 472.778 374.644 495.796 374.644 524.19Z" fill="white"/>
<path d="M526.23 700.157C526.23 728.551 503.212 751.569 474.818 751.569C446.424 751.569 423.406 728.551 423.406 700.157C423.406 671.763 446.424 648.745 474.818 648.745C503.212 648.745 526.23 671.763 526.23 700.157Z" fill="white"/>
<path d="M805.021 827.361C805.021 855.756 782.003 878.773 753.609 878.773C725.215 878.773 702.197 855.756 702.197 827.361C702.197 798.967 725.215 775.95 753.609 775.95C782.003 775.95 805.021 798.967 805.021 827.361Z" fill="white"/>
<path d="M190.727 701.218L320.052 531.611M473.758 706.518L320.052 523.131M477.998 706.518L618.983 387.446M629.584 377.905L750.428 826.302M756.789 826.302L839.472 664.116" stroke="white" stroke-width="32"/>
</svg>
