<svg width="1313" height="700" viewBox="0 0 1313 700" fill="none" xmlns="http://www.w3.org/2000/svg">
<path d="M469.253 552.591L399.627 564.867L416.523 660.689L329.663 676.005L312.767 580.183L99.0639 617.865L87.3948 551.686L258.972 182.381L329.977 169.861L387.35 495.242L456.976 482.965L469.253 552.591ZM300.49 510.557L267.549 323.739L170.89 533.409L300.49 510.557ZM703.435 616.496C645.068 626.788 596.721 613.278 558.393 575.967C520.444 538.115 494.216 478.057 479.711 395.792C465.449 314.907 469.715 250.42 492.511 202.331C515.766 154.161 556.577 124.93 614.943 114.638C673.31 104.347 721.427 117.897 759.295 155.289C797.542 192.141 823.838 251.239 838.181 332.585C852.605 414.389 848.23 479.606 825.056 528.236C802.341 576.785 761.801 606.205 703.435 616.496ZM691.158 546.87C722.868 541.279 743.295 522.75 752.436 491.285C761.956 459.279 761.125 411.565 749.942 348.143C738.921 285.641 723.546 241.439 703.815 215.539C684.463 189.098 658.931 178.673 627.22 184.264C595.51 189.856 574.854 208.425 565.252 239.971C556.03 270.977 556.929 317.731 567.95 380.234C579.133 443.655 594.441 488.816 613.874 515.717C633.686 542.077 659.447 552.462 691.158 546.87ZM1282.17 409.252L1212.54 421.529L1229.44 517.351L1142.58 532.667L1125.68 436.845L911.977 474.527L900.307 408.347L1071.88 39.0427L1142.89 26.5227L1200.26 351.903L1269.89 339.626L1282.17 409.252ZM1113.4 367.219L1080.46 180.401L983.802 390.071L1113.4 367.219Z" stroke="#2BFF00" stroke-opacity="0.5" stroke-width="2"/>
<path d="M873 308.693C874.2 311.493 866 318.859 863 320.693L874 333.193C878.333 328.526 891 314.693 896.5 304.693C902.451 293.872 899 281.193 898 278.693C897 276.193 895.5 276.693 895.5 278.693C895.5 280.693 891.5 287.193 885.5 293.693C879.5 300.193 877.5 298.774 877.5 297.193C877.5 295.193 879.5 289.693 878.5 287.193C877.5 284.693 876 286.693 875.5 287.193C873.5 289.193 871.5 305.193 873 308.693Z" fill="#FEAFAB"/>
<path d="M871.07 329.863C871.503 329.406 871.988 328.898 872.516 328.345C878.444 322.133 889.808 310.224 894.5 301.693C899.742 292.162 897.689 281.189 896.442 277C896.93 276.988 897.522 277.498 898 278.693C899 281.193 902.451 293.872 896.5 304.693C891 314.693 878.333 328.526 874 333.193L871.07 329.863Z" fill="#FD7D77"/>
<path d="M644.5 203C645.7 205 645.667 212.5 645.5 216H659.5C659.5 194.5 660 200.5 667.5 186C675 171.5 668.5 157 665.5 155C662.5 153 661.5 155.5 662.5 157C664.1 159.4 664.833 164.333 664.5 167C662.5 181.5 648 191.5 649 181.5C650 171.5 644.5 167 644.5 166C644.5 165 641 164 640.5 166C640 168 640 168 642 172C644 176 643.5 185 642 189.5C640.5 194 643 200.5 644.5 203Z" fill="#FDAEA9"/>
<path d="M641.289 165.037C640.913 165.212 640.62 165.52 640.5 166C640.333 166.667 640.222 167.111 640.222 167.556C640.222 168.444 640.667 169.333 642 172C644 176 643.5 185 642 189.5C640.5 194 643 200.5 644.5 203C645.7 205 645.667 212.5 645.5 216H647.594C647.872 210.813 648.103 204.119 647.278 202.744C645.778 200.244 643.278 193.744 644.778 189.244C646.278 184.744 646.778 175.744 644.778 171.744C644.317 170.822 643.788 169.834 643.253 168.834C642.564 167.548 641.865 166.243 641.289 165.037Z" fill="#FC8078"/>
<path d="M735.5 279.5C740.3 279.1 746.833 271.667 749.5 268C751.333 266.833 760.2 267.1 781 277.5C807 290.5 769 324.5 760 328.5C752.8 331.7 744.667 349.167 741.5 357.5C729.5 352.833 707.6 342.6 716 339C726.5 334.5 728.5 327.5 726 324.5C723.5 321.5 712.166 315.249 710 312C708 309 712 302.5 716.5 302C719.034 301.718 719.591 307.465 724.5 304C733 298 721.5 293.5 721 291C720.5 288.5 723.5 288.5 726 287.5C728.5 286.5 725 284 724.5 281.5C724 279 729.5 280 735.5 279.5Z" fill="#FEAFAB"/>
<path d="M714.896 316.264C719.575 316.092 725.336 314.29 732 309.5C738.966 304.493 741.193 299.77 743.345 295.208C746.134 289.292 748 284 761 278.5C762 278 763.845 277.323 765.732 276.893C768.302 276.308 771.56 275.566 774.704 274.489C776.669 275.383 778.766 276.383 781 277.5C807 290.5 769 324.5 760 328.5C752.8 331.7 744.666 349.167 741.5 357.5C729.5 352.833 707.6 342.6 716 339C726.5 334.5 728.5 327.5 726 324.5C724.848 323.118 721.822 321.046 718.681 318.896C717.399 318.018 716.097 317.127 714.896 316.264Z" fill="#D96565"/>
<path d="M724.737 349.911C716.739 345.639 710.998 341.144 716 339C726.5 334.5 728.5 327.5 726 324.5C725.802 324.263 725.55 324.005 725.25 323.731C729.318 326.261 734.659 329.988 737 333.5C739.665 337.497 731.419 345.008 724.737 349.911Z" fill="#A63A3A"/>
<path d="M722.68 293.007C721.834 293.64 721.098 294.598 722 295.5C722.454 295.954 722.908 296.362 723.404 296.808C724.428 297.729 725.63 298.81 727.377 300.784C728.479 297.921 725.622 295.503 723.378 293.603C723.136 293.398 722.902 293.2 722.68 293.007Z" fill="white"/>
<path d="M723.271 304.725C722.036 303.413 719.665 301 718.5 301C717.864 301 716.96 301.448 716.204 302.042C716.303 302.025 716.401 302.011 716.5 302C717.437 301.896 718.104 302.616 718.82 303.39C719.866 304.52 721.018 305.764 723.271 304.725Z" fill="white"/>
<path d="M756.205 257.021C751.805 256.621 742.705 262.021 737.705 268.021C736.205 271.521 737.205 272.021 739.705 272.521C742.478 273.076 747.705 269.521 755.205 274.521C762.705 279.521 759.205 284.021 757.205 287.021C755.205 290.021 753.435 288.556 754.205 297.021C754.705 302.521 756.205 301.521 760.705 299.021C767.546 295.22 770.288 299.021 769.705 302.521C768.955 307.021 767.205 311.521 763.205 317.021C759.119 322.639 758.455 327.021 757.705 330.021C757.08 332.521 759.705 335.521 762.205 332.021C764.705 328.521 776.705 321.521 784.205 318.521C791.705 315.521 794.205 313.521 794.205 311.021C794.205 308.521 793.205 304.521 796.205 295.521C799.205 286.521 799.205 281.521 796.205 280.521C793.205 279.521 788.205 277.521 782.205 268.021C776.205 258.521 771.705 261.021 766.705 260.521C761.705 260.021 761.705 257.521 756.205 257.021Z" fill="#0E3B5C"/>
<path d="M737.493 271.733C737.778 271.976 738.18 272.144 738.683 272.286C738.288 272.1 737.891 271.916 737.493 271.733Z" fill="#071F31"/>
<path d="M759.5 279C760.5 282 758.914 284.482 757.46 286.641C757.373 286.77 757.288 286.897 757.205 287.021C756.694 287.788 756.197 288.263 755.755 288.687C754.466 289.921 753.632 290.72 754.205 297.021C754.5 302 757.5 305.5 759 302.5C760.5 299.5 761 299 763 298C765 297 770.288 299.021 769.705 302.521C769.208 305.5 766.763 308.158 764 310C759.5 313 758.654 325.991 757.967 328.925C757.877 329.309 757.792 329.674 757.705 330.021C757.08 332.521 759.705 335.521 762.205 332.021C764.705 328.521 776.705 321.521 784.205 318.521C791.705 315.521 794.205 313.521 794.205 311.021C794.205 310.587 794.175 310.108 794.141 309.566C793.978 306.982 793.725 302.959 796.205 295.521C798.927 287.356 799.179 282.483 796.962 280.902C792.275 281.726 785.118 282.125 778.205 280.021C769.753 277.449 763.322 277.902 759.5 279Z" fill="#071F31"/>
<path d="M661.5 211H640C642.5 212.167 642 234.3 640 273.5C637.5 322.5 640.371 309.851 657.5 334.5C678 364 659.331 371.416 643.5 390C632 403.5 601.5 432.333 588 439.5L662.5 510.5C685 477 727 413.5 734 400C742.296 384 787 397 811.5 390C829.623 384.822 858.5 351.833 878 332.5L863.5 317C846.667 330.833 812.7 358.5 811.5 358.5C810 358.5 810 362.5 768.5 358.5C727 354.5 667 300.5 667 300C667 299.6 663.333 240.5 661.5 211Z" fill="#5B8C91"/>
<path d="M647.504 211C645.687 242.467 644.071 293.667 645 298.5C647.189 309.883 653.595 320.02 659.267 328.996C666.55 340.52 672.622 350.129 667 358C666.812 358.264 666.623 358.52 666.433 358.768C667.048 352.431 664.669 344.816 657.5 334.5C653.471 328.702 650.23 324.967 647.663 322.009C639.317 312.39 638.088 310.974 640 273.5C642 234.3 642.5 212.167 640 211H647.504Z" fill="#1F3857"/>
<path d="M873.113 327.276C865.443 335.467 855.695 344.937 850 347.5C840 352 822 367 815 373.5C808 380 774.5 383 758.5 380C754.171 379.188 750.611 377.901 747.543 376.792C739.268 373.799 734.565 372.099 728 384.5C724.823 390.5 715.247 398.06 708.371 401.527C703.229 404.12 698.495 408.507 695.5 413C692.836 416.996 690.824 420.512 688.719 426.281C685.294 435.673 681.624 445.735 674.5 451C663 459.5 650.5 484 649.5 494C649.5 494 649.276 495.479 649.179 497.805L662.5 510.5C685 477 727 413.5 734 400C738.891 390.567 756.437 391.214 775.036 391.9C787.985 392.377 801.444 392.873 811.5 390C826.133 385.819 847.777 363.508 865.835 344.893C870.142 340.453 874.245 336.223 878 332.5L873.113 327.276Z" fill="#1F3857"/>
<path d="M390 336C388.8 345.6 403.667 347.333 411 348L401 367C398.5 366.167 392.8 361.6 390 358C386.5 353.5 380 359.5 371.5 353C366.098 348.869 377.5 324.5 382.5 318C387.5 311.5 388.5 311 393.5 308C398.5 305 398 312 395 318C392.451 323.099 391.5 324 390 336Z" fill="#FEAFAB"/>
<path d="M407.333 354.968L401 367C398.5 366.167 391 359 390 358C389 357 384.5 356.161 383.524 356.209C380.228 356.37 376.166 356.568 371.5 353C369.659 351.592 369.77 347.832 370.914 343.229C373.216 347.715 377.716 350.608 388 353.5C396.337 355.845 403.746 355.67 407.333 354.968Z" fill="#D96565"/>
<path d="M393.5 364.5L409 345.5C443 360.667 512.8 391.9 520 395.5C529 400 656 502 649 524.5C642 547 611.5 545 599 540.5C579 533.3 552 482.5 535.5 460.5C519 438.5 437.333 390.833 393.5 364.5Z" fill="#110F5A"/>
<path d="M400.547 356.862L393.5 365.5C397.389 367.837 401.577 370.341 405.99 372.981C437.865 392.046 481.525 418.161 509.858 438.954C519.668 444.792 527.317 449.693 531.5 453C545.781 464.292 561.607 486.027 575.753 505.454C582.903 515.274 589.624 524.505 595.5 531.5C595.274 531.124 595.405 530.48 595.628 529.381C596.393 525.612 598.244 516.492 590.5 494.5C578 459 472 386.5 467 387C462 387.5 435 382.5 426 370C420.454 362.297 409.014 358.451 400.547 356.862Z" fill="#090830"/>
<path d="M427.189 384.894C428.311 394.504 443.163 392.645 450.443 391.545L445.259 412.38C442.632 412.167 436.009 409.09 432.431 406.261C427.96 402.724 423.077 410.1 413.273 405.813C407.042 403.088 412.309 376.704 415.616 369.2C418.923 361.696 419.775 360.972 423.916 356.867C428.057 352.762 429.24 359.68 427.756 366.222C426.495 371.781 425.786 372.883 427.189 384.894Z" fill="#FEAFAB"/>
<path d="M448.542 399.186L445.259 412.38C442.632 412.167 436 409 432.431 406.261C430 405 427.611 405.5 425.714 406.064C422.553 407.006 418.654 408.166 413.273 405.813C411.149 404.884 410.361 401.206 410.376 396.463C413.68 400.272 418.739 402.008 429.417 402.367C438.072 402.658 445.226 400.722 448.542 399.186Z" fill="#D96565"/>
<path d="M571.5 417C577.9 420.2 635.167 480 663 509.5C635 574.5 602 545 598.5 537.5C595 530 566 482.5 555 463.5C544 444.5 516.89 449.717 503 442C485 432 445 419.5 443 414C441 408.5 446 389 447 389.5C448 390 495.5 397.5 522 400C562.321 403.804 563.5 413 571.5 417Z" fill="#3B3BB3"/>
<path d="M642.982 541.083C621.182 561.908 601.182 543.246 598.5 537.5C596.32 532.829 584.251 512.646 572.799 493.494C565.861 481.892 559.15 470.668 555 463.5C547.959 451.338 534.318 449.099 521.768 447.038C514.711 445.879 507.999 444.777 503 442C495.191 437.662 483.243 432.853 472.052 428.35C457.447 422.472 444.132 417.114 443 414C442.093 411.505 442.626 406.131 443.572 401.049C453.201 404.135 467.563 409.773 479 417.5C494.68 428.095 497.429 428.273 508.558 428.994C510.56 429.124 512.832 429.271 515.5 429.5C516.618 429.596 518.301 429.635 520.353 429.683C528.353 429.87 541.954 430.188 549.5 434.5C554.398 437.299 557.583 444.26 561.966 453.842C563.847 457.953 565.948 462.546 568.5 467.5C579.584 489.017 592.296 494.516 600.385 498.016C600.767 498.181 601.139 498.342 601.5 498.5C609.5 502 619.5 517.5 621 524C622.308 529.671 627.423 543.333 642.982 541.083Z" fill="#110F5A"/>
</svg>
